<svg width="101" height="58" viewBox="0 0 101 58" fill="none" xmlns="http://www.w3.org/2000/svg">
<path fill-rule="evenodd" clip-rule="evenodd" d="M86.2386 55.5894C88.1655 53.6259 88.4407 53.0524 88.4407 50.9963C88.4407 49.6708 88.8128 48.1156 89.2942 47.4285C90.4083 45.8376 93.3184 44.6413 95.0286 45.071C96.1396 45.3494 96.7796 45.0113 98.6875 43.1395C99.9733 41.8772 101 40.3796 101 39.7662C101 39.0352 98.1998 35.8969 92.6962 30.4609C85.7342 23.5836 83.811 21.9828 80.7911 20.5526C77.4958 18.9921 76.7632 18.8482 72.1686 18.8582C67.4478 18.8691 66.9156 18.9848 63.2724 20.7923C60.7087 22.0639 58.3382 23.7892 56.2675 25.8898L53.1376 29.0647L67.5148 43.4487C76.9809 52.9195 82.2584 57.8333 82.9643 57.8333C83.5541 57.8333 85.0272 56.8233 86.2386 55.5894ZM37.9419 38.5318C56.2601 20.2826 57.5155 19.1428 61.2289 17.3992C65.6247 15.3342 70.0267 14.4624 74.3084 14.8083L77.1829 15.0407L73.5234 11.4246C67.0009 4.98013 63.4069 2.77911 56.5192 1.01087C49.9527 -0.675217 41.0529 0.910395 35.0857 4.8289C31.7339 7.02991 0.00233629 38.4648 0.00233619 39.5841C0.00233615 40.0033 1.06307 41.3874 2.35929 42.6596C4.45303 44.7146 4.94913 44.9558 6.80163 44.8219C10.538 44.5524 13.6857 48.194 12.7924 51.753C12.5051 52.8959 12.8447 53.4689 14.9919 55.469C16.388 56.7694 17.7669 57.8307 18.0553 57.827C18.3436 57.8239 27.2926 49.1407 37.9419 38.5318Z" fill="white"/>
</svg>
